ply
format ascii 1.0
comment VTK generated PLY File
obj_info vtkPolyData points and polygons: vtk4.0
element vertex 104
property float x
property float y
property float z
element face 200
property list uchar int vertex_indices
end_header
21.1006 13.6864 2.50801 
19.974 14.2792 2.50943 
21.0458 14.9751 2.51966 
23.1597 13.6986 2.49233 
23.1547 14.9616 2.50147 
24.2012 14.3486 2.51936 
21.0497 12.3552 3.00923 
19.9873 13.0594 3.02274 
19.981 14.3464 2.9877 
23.0928 13.6668 3.02315 
23.1436 14.9837 2.9968 
24.1992 14.3084 3.01145 
21.0563 13.6624 3.50044 
20.0128 14.3005 3.50196 
21.0397 14.9905 3.51686 
23.124 12.3693 3.52586 
24.1926 13.0507 3.48805 
24.1933 14.3046 3.52775 
21.1054 12.3686 3.99508 
19.9975 13.0244 4.01746 
19.9628 14.3235 3.99347 
23.0918 12.3659 4.01536 
24.2027 13.0303 3.98961 
24.2105 14.3515 4.02002 
21.0135 12.372 4.49484 
19.9953 13.0405 4.51866 
19.994 14.3275 4.49657 
20.988 14.9877 4.51391 
23.129 14.9751 4.49936 
24.1836 14.295 4.50402 
19.994 14.3045 4.99918 
21.0947 14.97 5.00511 
21.0155 14.3633 5.26136 
16.8587 5.8707 1.506 
15.7866 6.5159 1.51148 
15.79 19.4974 1.50914 
16.832 20.1726 1.51407 
23.1312 20.1643 1.51516 
25.2553 5.87426 1.51543 
25.219 20.1733 1.50332 
26.2873 6.54486 1.50319 
26.2703 19.521 1.51825 
15.7974 6.54126 2.00615 
16.8435 20.1644 2.01312 
25.272 20.1676 2.00409 
26.286 6.5101 2.00064 
26.2917 19.5224 2.01138 
15.7964 6.51482 2.50801 
16.8412 20.1718 2.51229 
26.2917 6.53203 2.50646 
26.2828 18.2404 2.50488 
27.3289 18.8774 2.51113 
27.3043 20.1659 2.51074 
28.3923 19.5165 2.5047 
15.7959 6.53365 3.0065 
15.7956 19.5228 3.00683 
16.8425 20.1701 3.01221 
25.2295 5.87459 3.00953 
25.2677 20.172 3.00716 
26.2824 6.52155 3.00264 
26.2771 19.4928 3.00969 
16.8476 5.87861 3.50672 
15.7952 19.5219 3.50639 
26.2865 19.5247 3.51855 
15.7938 19.5225 4.00601 
25.2381 5.87733 4.00887 
26.2849 6.52562 4.00299 
15.7948 6.53095 4.50586 
15.7955 19.525 4.50531 
25.2383 5.87903 4.5084 
26.2849 6.52649 4.50274 
26.28 19.5198 4.51425 
16.8529 5.87938 5.00608 
15.8021 6.52874 5.00656 
15.7912 19.5187 5.00537 
16.835 20.1709 5.01163 
25.2412 5.88036 5.00788 
26.2855 6.52845 5.00206 
26.2826 19.521 5.01454 
16.8241 5.88129 5.5049 
15.7833 6.53155 5.50421 
15.7928 19.5336 5.5049 
16.8522 20.177 5.50812 
26.2898 6.52852 5.50185 
26.2825 19.521 5.51207 
16.8663 5.8832 6.00679 
15.797 6.52917 6.00685 
15.7943 19.5106 6.00575 
16.8178 20.1736 6.01414 
26.2792 6.53087 6.00088 
26.2821 19.5292 6.01679 
16.8267 5.87698 6.50149 
15.7859 6.54391 6.50744 
15.7998 7.84173 6.50504 
15.7917 19.5357 6.49967 
16.8747 20.1747 6.51167 
25.2039 5.8798 6.5055 
25.2414 20.1738 6.49955 
26.2931 6.52463 6.50004 
26.2772 10.4269 6.50587 
26.2927 19.5141 6.51075 
16.8414 9.12564 6.75574 
16.8237 19.5039 6.75759 
25.241 18.2281 6.75565 
3 0 1 2 
3 0 2 3 
3 2 3 4 
3 3 4 5 
3 6 7 0 
3 1 7 0 
3 1 7 8 
3 2 8 14 
3 1 2 8 
3 6 0 9 
3 0 3 9 
3 2 4 10 
3 2 14 10 
3 3 5 11 
3 3 9 11 
3 5 10 11 
3 4 5 10 
3 6 7 12 
3 7 12 13 
3 7 8 13 
3 8 14 13 
3 6 9 12 
3 9 15 16 
3 9 11 16 
3 11 16 17 
3 11 10 17 
3 18 19 12 
3 13 19 12 
3 13 19 20 
3 13 14 20 
3 9 18 12 
3 15 9 18 
3 15 18 21 
3 15 16 22 
3 15 21 22 
3 16 17 22 
3 17 22 23 
3 17 10 23 
3 18 19 24 
3 19 24 25 
3 19 20 25 
3 20 25 26 
3 14 26 27 
3 20 14 26 
3 21 24 28 
3 18 21 24 
3 14 10 28 
3 14 27 28 
3 21 22 28 
3 22 28 29 
3 22 23 29 
3 23 28 29 
3 10 23 28 
3 25 24 30 
3 25 26 30 
3 27 30 31 
3 26 27 30 
3 24 32 28 
3 31 32 28 
3 27 28 31 
3 24 30 32 
3 30 31 32 
3 34 33 35 
3 33 35 36 
3 33 37 36 
3 37 33 38 
3 38 41 39 
3 38 37 39 
3 38 40 41 
3 34 33 42 
3 34 35 42 
3 36 35 43 
3 36 43 37 
3 37 39 44 
3 38 40 45 
3 40 41 45 
3 41 44 46 
3 39 41 44 
3 33 42 61 
3 42 61 47 
3 42 35 47 
3 43 55 48 
3 35 43 55 
3 43 48 37 
3 33 38 57 
3 37 44 58 
3 38 45 49 
3 38 57 49 
3 45 41 49 
3 46 50 51 
3 41 46 50 
3 46 51 52 
3 44 46 52 
3 44 58 52 
3 51 52 53 
3 47 61 54 
3 47 35 54 
3 48 55 56 
3 48 56 37 
3 57 49 59 
3 49 41 59 
3 51 52 60 
3 50 51 60 
3 58 52 60 
3 51 53 52 
3 54 61 67 
3 54 35 67 
3 35 67 93 
3 35 55 93 
3 55 93 62 
3 55 56 62 
3 33 57 65 
3 37 58 97 
3 57 59 66 
3 57 65 66 
3 59 41 66 
3 41 66 99 
3 60 50 63 
3 60 97 63 
3 58 60 97 
3 62 93 64 
3 62 56 64 
3 64 93 68 
3 64 56 68 
3 33 65 69 
3 65 66 70 
3 65 69 70 
3 66 99 70 
3 41 50 99 
3 50 63 99 
3 63 99 71 
3 63 97 71 
3 61 67 72 
3 67 72 73 
3 67 93 73 
3 68 93 74 
3 56 74 75 
3 68 56 74 
3 61 33 96 
3 61 72 96 
3 56 37 97 
3 56 75 97 
3 33 69 76 
3 33 96 76 
3 69 70 77 
3 69 76 77 
3 70 99 77 
3 71 99 78 
3 71 97 78 
3 72 73 79 
3 73 79 80 
3 73 93 80 
3 74 93 81 
3 75 81 82 
3 74 75 81 
3 72 79 96 
3 75 82 97 
3 76 77 83 
3 77 99 83 
3 78 99 84 
3 78 97 84 
3 79 80 85 
3 80 85 86 
3 80 93 86 
3 81 93 87 
3 82 87 88 
3 81 82 87 
3 79 85 96 
3 82 88 97 
3 76 83 89 
3 76 96 89 
3 83 99 89 
3 84 99 90 
3 84 97 90 
3 85 86 91 
3 86 91 92 
3 86 93 92 
3 87 93 94 
3 88 94 95 
3 87 88 94 
3 85 91 96 
3 88 95 97 
3 96 89 98 
3 89 99 98 
3 90 99 100 
3 90 97 100 
3 92 91 93 
3 93 101 102 
3 93 94 102 
3 94 95 102 
3 101 102 103 
3 95 97 102 
3 101 103 93 
3 103 102 97 
3 91 96 99 
3 91 93 99 
3 93 99 103 
3 98 99 96 
3 99 100 103 
3 100 103 97 
