ply
format ascii 1.0
comment VTK generated PLY File
obj_info vtkPolyData points and polygons: vtk4.0
element vertex 52
property float x
property float y
property float z
element face 100
property list uchar int vertex_indices
end_header
21.1006 13.6864 2.50801 
19.974 14.2792 2.50943 
21.0433 14.3767 2.25406 
21.0458 14.9751 2.51966 
23.0816 14.2847 2.26384 
23.1597 13.6986 2.49233 
23.1547 14.9616 2.50147 
24.2012 14.3486 2.51936 
21.0497 12.3552 3.00923 
19.9873 13.0594 3.02274 
21.0166 13.0256 2.75292 
19.981 14.3464 2.9877 
21.0441 14.9713 3.02054 
22.0679 13.0331 3.00506 
23.0928 13.6668 3.02315 
23.1436 14.9837 2.9968 
24.1992 14.3084 3.01145 
21.0706 13.0214 3.24948 
21.0563 13.6624 3.50044 
20.0128 14.3005 3.50196 
21.0397 14.9905 3.51686 
23.1797 13.0124 3.25404 
23.124 12.3693 3.52586 
22.092 13.0329 3.49963 
23.1333 14.9867 3.49755 
24.1926 13.0507 3.48805 
24.1933 14.3046 3.52775 
21.1054 12.3686 3.99508 
19.9975 13.0244 4.01746 
20.991 13.05 3.76644 
19.9628 14.3235 3.99347 
21.085 14.9732 4.01834 
23.0918 12.3659 4.01536 
23.1255 14.9672 3.98741 
24.2027 13.0303 3.98961 
24.2105 14.3515 4.02002 
21.0135 12.372 4.49484 
19.9953 13.0405 4.51866 
19.994 14.3275 4.49657 
20.988 14.9877 4.51391 
22.1298 13.0323 4.50529 
23.1713 13.0406 4.2608 
23.1188 13.6686 4.50377 
23.129 14.9751 4.49936 
24.1836 14.295 4.50402 
21.0547 13.0275 4.75726 
21.0463 13.6746 5.00346 
19.994 14.3045 4.99918 
21.0947 14.97 5.00511 
22.0559 14.3015 5.00245 
23.1323 14.3518 4.76128 
21.0155 14.3633 5.26136 
3 0 1 2 
3 1 2 3 
3 0 4 5 
3 0 2 4 
3 2 4 6 
3 2 3 6 
3 4 5 7 
3 4 6 7 
3 8 9 10 
3 0 1 10 
3 1 9 10 
3 1 9 11 
3 3 11 12 
3 1 3 11 
3 8 10 13 
3 0 10 13 
3 0 13 14 
3 0 5 14 
3 3 6 15 
3 3 12 15 
3 5 7 16 
3 5 14 16 
3 7 15 16 
3 6 7 15 
3 8 9 17 
3 9 17 18 
3 9 18 19 
3 9 11 19 
3 12 19 20 
3 11 12 19 
3 21 22 23 
3 8 13 17 
3 13 14 17 
3 14 17 18 
3 14 21 23 
3 14 18 23 
3 12 15 24 
3 12 20 24 
3 21 22 25 
3 14 21 25 
3 14 16 25 
3 16 25 26 
3 16 24 26 
3 15 16 24 
3 27 28 29 
3 18 19 29 
3 19 28 29 
3 19 28 30 
3 20 30 31 
3 19 20 30 
3 23 27 29 
3 22 23 27 
3 22 27 32 
3 18 23 29 
3 20 24 33 
3 20 31 33 
3 22 25 34 
3 22 32 34 
3 25 26 34 
3 26 34 35 
3 26 33 35 
3 24 26 33 
3 27 28 36 
3 28 36 37 
3 28 30 37 
3 30 37 38 
3 31 38 39 
3 30 31 38 
3 32 40 41 
3 32 36 40 
3 27 32 36 
3 40 41 42 
3 31 33 43 
3 31 39 43 
3 32 34 41 
3 41 42 44 
3 34 41 44 
3 34 35 44 
3 35 43 44 
3 33 35 43 
3 36 37 45 
3 37 45 46 
3 37 46 47 
3 37 38 47 
3 39 47 48 
3 38 39 47 
3 36 40 45 
3 45 46 49 
3 40 45 49 
3 40 49 50 
3 40 42 50 
3 48 49 50 
3 43 48 50 
3 39 43 48 
3 42 44 50 
3 43 44 50 
3 46 47 51 
3 47 48 51 
3 46 49 51 
3 48 49 51 
