ply
format ascii 1.0
comment VTK generated PLY File
obj_info vtkPolyData points and polygons: vtk4.0
element vertex 398
property float x
property float y
property float z
element face 792
property list uchar int vertex_indices
end_header
20.6246 13.9351 2.49828 
20.4101 14.0659 2.5217 
20.6264 14.0666 2.25997 
20.4117 14.3212 2.50406 
20.6244 14.3311 2.2591 
20.4138 14.5815 2.51215 
20.6206 14.5909 2.25994 
20.4123 14.8399 2.5052 
20.6267 14.8487 2.25729 
20.621 14.9781 2.52343 
21.0555 13.68 2.50847 
20.8365 13.8015 2.51877 
21.0304 13.81 2.26152 
21.0489 14.0643 2.2579 
21.0377 14.3235 2.25892 
21.0438 14.5827 2.25876 
21.0405 14.8403 2.25914 
20.8292 15.0999 2.50285 
21.044 15.1108 2.25955 
21.0425 15.2349 2.52771 
21.4625 13.7997 2.26167 
21.4577 13.6751 2.50402 
21.4647 14.0639 2.25785 
21.4596 14.3273 2.26221 
21.4624 14.5877 2.25911 
21.4654 14.8475 2.26203 
21.4555 15.1065 2.25517 
21.2482 15.3657 2.49989 
21.4682 15.3602 2.26026 
21.4623 15.4947 2.51712 
21.8909 13.4113 2.5004 
21.6779 13.5425 2.51643 
21.8736 13.5538 2.26233 
21.8875 13.8072 2.2568 
21.879 14.0692 2.25933 
21.8829 14.3274 2.2589 
21.8825 14.585 2.25856 
21.8794 14.8439 2.25816 
21.8834 15.1075 2.26278 
21.8743 15.2362 2.50371 
21.6683 15.369 2.51303 
22.2963 13.542 2.26249 
22.3037 13.421 2.51515 
22.3059 13.8008 2.25638 
22.2965 14.0629 2.26412 
22.302 14.3232 2.25896 
22.3004 14.5829 2.26098 
22.3005 14.8453 2.26108 
22.3018 15.1051 2.2539 
22.2976 15.2346 2.5102 
22.5114 13.5497 2.50327 
22.7187 13.8082 2.26049 
22.7306 13.6747 2.51138 
22.7211 14.0725 2.25864 
22.7229 14.3283 2.25756 
22.7214 14.5895 2.25993 
22.7198 14.8488 2.25678 
22.7197 15.1064 2.26044 
22.7246 15.2349 2.51646 
23.1299 13.8056 2.25738 
23.1398 13.6747 2.51263 
23.1453 14.0591 2.25723 
23.1376 14.3216 2.2625 
23.1397 14.581 2.2551 
23.1397 14.841 2.25982 
23.1443 15.102 2.26185 
23.1351 15.2378 2.50084 
23.3525 13.8128 2.50688 
23.3488 14.0713 2.51149 
23.3509 14.3306 2.50317 
23.3496 14.5921 2.52132 
23.3468 14.8497 2.49718 
23.3491 15.1075 2.51706 
20.6286 13.1542 3.01304 
20.4086 13.2904 3.00908 
20.6274 13.2843 2.755 
20.4141 13.5452 3.00389 
20.6259 13.5487 2.76887 
20.4146 13.8064 3.00297 
20.6268 13.8084 2.7533 
20.4135 14.0715 3.00305 
20.415 14.331 3.00956 
20.4127 14.5936 3.00918 
20.4181 14.8473 2.99594 
20.618 14.9757 3.02175 
21.052 12.6362 3.01165 
20.8287 12.7673 3.0043 
21.0416 12.7671 2.75992 
20.8387 13.024 3.00674 
21.0302 13.0306 2.75526 
21.0561 13.2888 2.76116 
21.0288 13.5454 2.75487 
20.8363 15.1086 2.98317 
21.0443 15.2333 3.02505 
21.4524 12.7686 2.7551 
21.4669 12.6354 3.00595 
21.4726 13.0238 2.75609 
21.4641 13.2826 2.76181 
21.4595 13.5452 2.75773 
21.249 15.3684 2.99102 
21.4692 15.4973 3.02656 
21.8793 12.7671 2.75905 
21.8835 12.6378 3.00871 
21.8901 13.0249 2.75976 
21.8714 13.293 2.75846 
21.8934 15.3654 2.7608 
21.872 15.494 2.99511 
22.2972 12.7681 2.7588 
22.3093 12.6404 3.00231 
22.2996 13.0247 2.75598 
22.2973 13.2867 2.75836 
22.2981 15.3635 2.75437 
22.2974 15.4948 3.01652 
22.7162 12.763 2.75575 
22.7242 12.6342 3.0153 
22.724 13.0259 2.75318 
22.7271 13.2892 2.76176 
22.7128 13.5392 2.75806 
22.5153 15.3677 3.01032 
22.7159 15.2373 3.00991 
22.9272 12.7708 3.00887 
22.9336 13.0236 3.01578 
23.1371 13.2858 2.75872 
23.1367 13.1533 3.00442 
23.1389 13.5514 2.75428 
23.1435 15.2318 3.00439 
23.3532 13.2904 3.0037 
23.5559 13.5435 2.75864 
23.5673 13.4166 3.01455 
23.56 13.8001 2.75658 
23.56 14.0604 2.75719 
23.5571 14.3195 2.75903 
23.5609 14.5804 2.7538 
23.5601 14.7153 2.99974 
23.3524 14.8375 3.00382 
23.349 15.11 3.01844 
23.7676 13.5495 3.00873 
23.7687 13.8134 3.00745 
23.7673 14.0697 3.01023 
23.7714 14.3349 3.00449 
23.7653 14.5832 3.01953 
20.6277 13.1598 3.50571 
20.4124 13.2833 3.50597 
20.4125 13.5473 3.51161 
20.4134 13.8018 3.51059 
20.4139 14.0624 3.51013 
20.4155 14.3213 3.50434 
20.4093 14.5811 3.51805 
20.4167 14.8469 3.50434 
20.6288 14.9747 3.50744 
21.0381 12.7681 3.25533 
21.049 13.0279 3.26241 
21.0326 13.159 3.50079 
20.8327 15.1059 3.50471 
21.0383 15.239 3.51308 
21.4682 12.3754 3.49224 
21.2601 12.5023 3.52033 
21.455 12.5089 3.25893 
21.2452 12.7643 3.5012 
21.2605 13.0248 3.51511 
21.252 15.3628 3.49299 
21.456 15.4932 3.51346 
21.8859 12.1184 3.49903 
21.6649 12.2399 3.51974 
21.8848 12.254 3.26125 
21.8796 12.5042 3.25325 
21.883 15.4954 3.49458 
22.2997 12.2415 3.25537 
22.2967 12.117 3.51442 
22.2974 12.5045 3.26055 
22.3103 15.4966 3.52041 
22.5178 12.2514 3.50125 
22.506 12.5017 3.50991 
22.7137 12.6368 3.50814 
22.7257 15.3631 3.26436 
22.7114 15.4953 3.4924 
22.93 12.7682 3.49242 
23.1396 13.0304 3.25681 
23.1387 12.8913 3.52419 
22.932 15.3638 3.52306 
23.1373 15.2371 3.49602 
23.3515 13.0314 3.50415 
23.5538 13.278 3.25666 
23.5629 13.1578 3.51871 
23.5678 14.4562 3.49817 
23.5544 14.5931 3.25619 
23.3479 14.5826 3.52026 
23.3475 14.8499 3.49185 
23.3496 15.0975 3.51393 
23.7658 13.2892 3.49691 
23.7726 13.5377 3.51148 
23.7701 13.8029 3.5062 
23.7697 14.0591 3.5073 
23.7679 14.3226 3.5055 
20.6246 12.8933 3.99987 
20.4142 13.0353 4.00915 
20.6236 13.0215 3.76359 
20.4153 13.2899 4.00192 
20.4158 13.5513 4.00777 
20.4129 13.8113 4.00546 
20.4118 14.0696 4.00626 
20.4151 14.3299 4.01104 
20.416 14.5914 3.99773 
20.615 14.8423 3.76468 
20.6296 14.7156 4.01818 
21.0589 12.6339 4.01181 
20.8297 12.764 4.01915 
21.0376 12.7741 3.75045 
21.0449 13.0248 3.75594 
20.8324 14.8508 3.99705 
20.8303 15.1062 4.01883 
20.8337 15.361 3.99954 
21.044 15.3705 3.76089 
21.0469 15.4939 4.00682 
21.4691 12.1185 4.00416 
21.2458 12.2481 4.00457 
21.4557 12.2523 3.75455 
21.2502 12.5127 3.99821 
21.4574 15.4988 4.00844 
21.875 12.1158 4.00969 
21.8806 15.4968 4.00123 
22.0977 12.2437 3.99944 
22.3024 12.251 3.75901 
22.3049 12.5104 3.74973 
22.0867 12.4999 4.01064 
22.3063 12.6375 4.01265 
22.2925 15.495 4.01924 
22.7267 12.635 3.99475 
22.7227 15.4956 4.00033 
23.1458 12.766 3.75798 
23.1381 12.6385 4.02197 
23.1403 14.9764 4.00811 
23.138 15.1089 3.75248 
22.9303 15.1038 4.00406 
22.9244 15.367 4.00533 
23.3488 12.7676 3.98724 
23.3476 13.0225 4.02702 
23.5577 13.2883 3.75942 
23.3506 13.2833 3.99195 
23.5567 13.5507 3.7525 
23.3504 13.5442 4.01819 
23.5562 13.8089 3.75747 
23.3512 13.8048 4.00352 
23.5598 14.07 3.76041 
23.3497 14.0628 4.00966 
23.5517 14.3258 3.75532 
23.3523 14.3273 4.00128 
23.3476 14.5864 4.00834 
23.3506 14.8501 4.01363 
20.6242 13.0276 4.24958 
20.6234 13.2776 4.26568 
20.6222 13.5407 4.25301 
20.6231 13.8023 4.25593 
20.6255 14.0643 4.25954 
20.6251 14.3266 4.25325 
20.62 14.5822 4.25614 
21.0342 12.6395 4.49176 
20.8362 12.7663 4.50984 
20.833 13.031 4.50065 
20.8299 13.2978 4.50169 
20.8366 13.5519 4.5146 
20.8304 13.8095 4.50009 
20.8314 14.0658 4.50948 
20.8338 14.3268 4.51136 
20.8322 14.5859 4.5027 
20.8351 14.841 4.51117 
20.8336 15.1111 4.5026 
21.0347 15.3669 4.2645 
21.0472 15.2306 4.50691 
21.4634 12.2428 4.25855 
21.4707 12.5036 4.26155 
21.4489 12.6356 4.51278 
21.2495 15.3706 4.502 
21.4656 15.4956 4.50483 
21.8847 12.2551 4.25834 
21.8753 12.5095 4.25164 
21.8854 12.6379 4.50181 
21.8868 15.4932 4.50725 
22.2957 12.6363 4.51032 
22.3079 15.4956 4.50958 
22.7167 12.6376 4.50195 
22.7246 15.4954 4.49862 
22.9347 12.7615 4.50409 
23.1409 12.7698 4.24798 
23.1422 13.0276 4.25431 
22.9287 13.0256 4.51156 
23.1397 13.1531 4.50555 
23.1367 14.9732 4.4996 
22.9335 15.1082 4.50924 
22.9321 15.3626 4.51266 
23.3473 13.2894 4.49899 
23.3493 13.5448 4.50686 
23.3469 13.8065 4.50449 
23.347 14.066 4.50506 
23.3472 14.3221 4.50947 
23.3487 14.5818 4.49784 
23.3489 14.8398 4.51076 
21.0535 12.7663 4.75836 
21.0332 13.0261 4.75241 
21.0504 13.2807 4.7604 
21.0446 13.5358 4.75106 
21.0344 13.679 5.00044 
20.8359 13.8029 5.00513 
20.8347 14.0705 5.00375 
20.8311 14.3286 5.0038 
20.8324 14.5886 5.01287 
20.8269 14.8454 4.9988 
21.0438 15.1044 4.75826 
21.0443 14.9751 5.01981 
21.4648 12.7663 4.75503 
21.4574 13.031 4.75733 
21.4587 13.1571 5.00062 
21.2491 13.2952 5.00529 
21.2517 13.5515 5.00974 
21.2457 15.1115 4.99838 
21.4752 15.2371 5.01191 
21.4592 15.36 4.75846 
21.8762 12.7685 4.75393 
21.8854 13.0252 4.75588 
21.8809 13.1556 5.0065 
21.8886 15.2365 5.00057 
21.8707 15.3692 4.75788 
22.3087 12.7642 4.75764 
22.3021 13.027 4.75558 
22.2973 13.1588 5.00225 
22.3096 15.236 5.01098 
22.2951 15.3648 4.75465 
22.7168 12.7715 4.75461 
22.7191 13.0279 4.75582 
22.7174 13.157 5.00943 
22.7238 15.238 5.00234 
22.7115 15.3677 4.75667 
22.9317 13.2847 4.99736 
23.1406 13.2898 4.75824 
23.1398 13.5471 4.75436 
22.9304 13.5422 5.0097 
23.14 13.8066 4.75765 
22.931 13.8067 5.00343 
23.1408 14.0693 4.7552 
22.9282 14.064 5.00654 
23.1391 14.331 4.75787 
22.9305 14.3209 5.00328 
23.1419 14.5936 4.75665 
22.9279 14.5777 5.00687 
23.1374 14.8488 4.75729 
22.9296 14.8389 5.00276 
22.9276 15.1064 5.0034 
21.053 13.8024 5.25484 
21.0311 14.0683 5.25613 
21.0497 14.3195 5.25491 
21.0392 14.5837 5.25406 
21.0455 14.8478 5.25018 
21.4686 13.2828 5.255 
21.4596 13.5429 5.25277 
21.4578 13.8126 5.25519 
21.4595 14.0724 5.2566 
21.4668 14.194 5.5016 
21.2438 14.3341 5.51398 
21.254 14.5845 5.49382 
21.4639 14.7192 5.51412 
21.4638 14.8476 5.26473 
21.4587 15.1029 5.24806 
21.8809 13.2917 5.25357 
21.8798 13.5486 5.25575 
21.8779 13.8068 5.2517 
21.8906 14.0582 5.25333 
21.8695 14.1997 5.50256 
21.6714 14.848 5.49393 
21.8986 14.9785 5.51491 
21.8678 15.1048 5.25549 
22.3088 13.2825 5.25478 
22.297 13.5431 5.25493 
22.3044 13.8111 5.25656 
22.2954 13.9378 5.5012 
22.0924 14.0712 5.51022 
22.2987 14.9752 5.49908 
22.292 15.1047 5.2539 
22.7208 13.2919 5.25467 
22.7151 13.5501 5.25425 
22.7236 13.8061 5.25236 
22.5108 14.0616 5.50486 
22.717 14.0704 5.25463 
22.7206 14.3353 5.25313 
22.5148 14.3197 5.50727 
22.7192 14.5924 5.25348 
22.5099 14.5809 5.50394 
22.7246 14.8519 5.25961 
22.5139 14.8397 5.50861 
22.7172 15.1029 5.25393 
21.4658 14.3261 5.75062 
21.4612 14.5834 5.75081 
21.8865 14.3173 5.75328 
21.8831 14.5911 5.76408 
21.8728 14.8412 5.75058 
22.2994 14.0715 5.75 
22.2963 14.3333 5.75649 
22.3003 14.5905 5.75005 
22.294 14.8486 5.75037 
3 0 1 2 
3 2 3 4 
3 1 2 3 
3 4 5 6 
3 3 4 5 
3 6 7 8 
3 5 6 7 
3 7 8 9 
3 10 11 12 
3 0 11 12 
3 0 2 12 
3 2 12 13 
3 2 13 14 
3 2 4 14 
3 4 14 15 
3 4 6 15 
3 6 15 16 
3 6 8 16 
3 8 9 17 
3 8 17 18 
3 8 16 18 
3 17 18 19 
3 10 20 21 
3 10 12 20 
3 12 20 22 
3 12 13 22 
3 13 22 23 
3 13 14 23 
3 14 23 24 
3 14 15 24 
3 15 24 25 
3 15 16 25 
3 16 25 26 
3 16 18 26 
3 18 19 27 
3 18 27 28 
3 18 26 28 
3 27 28 29 
3 30 31 32 
3 21 31 32 
3 20 21 32 
3 20 32 33 
3 20 33 34 
3 20 22 34 
3 22 34 35 
3 22 23 35 
3 23 35 36 
3 23 24 36 
3 24 36 37 
3 24 25 37 
3 25 37 38 
3 25 26 38 
3 28 39 40 
3 28 38 39 
3 26 28 38 
3 28 29 40 
3 30 41 42 
3 30 32 41 
3 32 41 43 
3 32 33 43 
3 33 43 44 
3 33 34 44 
3 34 44 45 
3 34 35 45 
3 35 45 46 
3 35 36 46 
3 36 46 47 
3 36 37 47 
3 37 47 48 
3 37 38 48 
3 38 48 49 
3 38 39 49 
3 41 42 50 
3 50 51 52 
3 41 50 51 
3 41 43 51 
3 43 51 53 
3 43 44 53 
3 44 53 54 
3 44 45 54 
3 45 54 55 
3 45 46 55 
3 46 55 56 
3 46 47 56 
3 47 56 57 
3 47 48 57 
3 48 57 58 
3 48 49 58 
3 52 59 60 
3 51 52 59 
3 51 59 61 
3 51 53 61 
3 53 61 62 
3 53 54 62 
3 54 62 63 
3 54 55 63 
3 55 63 64 
3 55 56 64 
3 56 64 65 
3 56 57 65 
3 57 65 66 
3 57 58 66 
3 59 60 67 
3 59 61 67 
3 61 67 68 
3 61 62 68 
3 62 68 69 
3 62 63 69 
3 63 69 70 
3 63 64 70 
3 64 70 71 
3 64 65 71 
3 65 71 72 
3 65 66 72 
3 73 74 75 
3 75 76 77 
3 74 75 76 
3 77 78 79 
3 76 77 78 
3 0 1 79 
3 1 78 79 
3 1 78 80 
3 1 3 80 
3 3 80 81 
3 3 5 81 
3 5 81 82 
3 5 7 82 
3 7 82 83 
3 9 83 84 
3 7 9 83 
3 85 86 87 
3 87 88 89 
3 86 87 88 
3 73 88 89 
3 73 75 89 
3 75 89 90 
3 75 90 91 
3 75 77 91 
3 10 11 91 
3 11 79 91 
3 77 79 91 
3 0 11 79 
3 9 17 92 
3 9 84 92 
3 19 92 93 
3 17 19 92 
3 85 94 95 
3 85 87 94 
3 87 94 96 
3 87 89 96 
3 89 96 97 
3 89 90 97 
3 90 97 98 
3 90 91 98 
3 10 91 98 
3 10 21 98 
3 19 27 99 
3 19 93 99 
3 29 99 100 
3 27 29 99 
3 95 101 102 
3 94 95 101 
3 94 101 103 
3 94 96 103 
3 96 103 104 
3 96 97 104 
3 30 31 104 
3 31 98 104 
3 97 98 104 
3 21 31 98 
3 39 40 105 
3 40 105 106 
3 29 40 106 
3 29 100 106 
3 102 107 108 
3 101 102 107 
3 101 107 109 
3 101 103 109 
3 103 109 110 
3 103 104 110 
3 30 104 110 
3 30 42 110 
3 39 49 105 
3 49 105 111 
3 105 111 112 
3 105 106 112 
3 108 113 114 
3 107 108 113 
3 107 113 115 
3 107 109 115 
3 109 115 116 
3 109 110 116 
3 42 50 117 
3 42 110 117 
3 110 116 117 
3 50 52 117 
3 111 118 119 
3 49 111 119 
3 49 58 119 
3 111 112 118 
3 113 114 120 
3 113 115 120 
3 115 120 121 
3 121 122 123 
3 115 121 122 
3 115 116 122 
3 116 122 124 
3 116 117 124 
3 52 117 124 
3 52 60 124 
3 58 66 125 
3 58 119 125 
3 122 123 126 
3 126 127 128 
3 122 126 127 
3 122 124 127 
3 60 67 129 
3 60 124 129 
3 124 127 129 
3 67 68 130 
3 67 129 130 
3 68 69 131 
3 68 130 131 
3 69 70 132 
3 69 131 132 
3 70 132 133 
3 70 133 134 
3 70 71 134 
3 71 72 134 
3 72 134 135 
3 72 125 135 
3 66 72 125 
3 127 128 136 
3 127 129 136 
3 129 136 137 
3 129 130 137 
3 130 137 138 
3 130 131 138 
3 131 138 139 
3 131 132 139 
3 132 139 140 
3 132 133 140 
3 73 74 141 
3 74 141 142 
3 74 76 142 
3 76 142 143 
3 76 78 143 
3 78 143 144 
3 78 80 144 
3 80 144 145 
3 80 81 145 
3 81 145 146 
3 81 82 146 
3 82 146 147 
3 82 83 147 
3 83 147 148 
3 84 148 149 
3 83 84 148 
3 85 86 150 
3 86 88 151 
3 86 150 151 
3 88 151 152 
3 73 88 152 
3 73 141 152 
3 84 92 153 
3 84 149 153 
3 93 153 154 
3 92 93 153 
3 155 156 157 
3 156 157 158 
3 85 157 158 
3 85 95 157 
3 85 150 158 
3 150 151 158 
3 151 158 159 
3 151 152 159 
3 93 99 160 
3 93 154 160 
3 100 160 161 
3 99 100 160 
3 162 163 164 
3 155 163 164 
3 155 157 164 
3 157 164 165 
3 95 157 165 
3 95 102 165 
3 100 106 166 
3 100 161 166 
3 162 167 168 
3 162 164 167 
3 164 167 169 
3 164 165 169 
3 102 165 169 
3 102 108 169 
3 106 112 170 
3 106 166 170 
3 167 168 171 
3 167 169 171 
3 169 171 172 
3 108 169 172 
3 108 172 173 
3 108 114 173 
3 118 119 174 
3 118 174 175 
3 112 118 175 
3 112 170 175 
3 114 120 176 
3 114 173 176 
3 176 177 178 
3 121 176 177 
3 120 121 176 
3 121 123 177 
3 174 179 180 
3 119 174 180 
3 119 125 180 
3 174 175 179 
3 177 178 181 
3 181 182 183 
3 177 181 182 
3 126 177 182 
3 123 126 177 
3 126 128 182 
3 184 185 186 
3 133 134 185 
3 134 185 186 
3 134 186 187 
3 134 135 187 
3 135 187 188 
3 135 180 188 
3 125 135 180 
3 182 183 189 
3 128 182 189 
3 128 136 189 
3 136 189 190 
3 136 137 190 
3 137 190 191 
3 137 138 191 
3 138 191 192 
3 138 139 192 
3 139 192 193 
3 140 184 185 
3 140 184 193 
3 139 140 193 
3 133 140 185 
3 194 195 196 
3 141 142 196 
3 142 195 196 
3 142 195 197 
3 142 143 197 
3 143 197 198 
3 143 144 198 
3 144 198 199 
3 144 145 199 
3 145 199 200 
3 145 146 200 
3 146 200 201 
3 146 147 201 
3 147 201 202 
3 202 203 204 
3 148 202 203 
3 147 148 202 
3 148 149 203 
3 205 206 207 
3 194 206 207 
3 194 196 207 
3 196 207 208 
3 141 196 208 
3 141 152 208 
3 203 204 209 
3 149 203 209 
3 149 153 209 
3 153 209 210 
3 154 211 212 
3 153 154 211 
3 153 210 211 
3 211 212 213 
3 214 215 216 
3 155 156 216 
3 156 215 216 
3 156 215 217 
3 158 205 207 
3 158 205 217 
3 156 158 217 
3 158 159 207 
3 159 207 208 
3 152 159 208 
3 154 160 212 
3 160 161 212 
3 161 212 213 
3 161 213 218 
3 163 214 216 
3 162 163 214 
3 162 214 219 
3 155 163 216 
3 161 166 220 
3 161 218 220 
3 168 221 222 
3 168 219 221 
3 162 168 219 
3 222 223 224 
3 221 222 224 
3 223 224 225 
3 166 170 226 
3 166 220 226 
3 168 171 222 
3 171 172 222 
3 172 222 223 
3 172 173 223 
3 173 223 225 
3 173 225 227 
3 170 175 228 
3 170 226 228 
3 173 176 229 
3 173 229 230 
3 173 227 230 
3 176 178 229 
3 231 232 233 
3 179 180 232 
3 179 232 233 
3 179 233 234 
3 179 228 234 
3 175 179 228 
3 229 230 235 
3 178 229 235 
3 178 181 235 
3 181 235 236 
3 183 237 238 
3 181 183 238 
3 181 236 238 
3 237 239 240 
3 237 238 240 
3 239 241 242 
3 239 240 242 
3 241 243 244 
3 241 242 244 
3 243 245 246 
3 243 244 246 
3 184 186 245 
3 186 245 246 
3 186 246 247 
3 186 187 247 
3 187 247 248 
3 188 231 232 
3 188 231 248 
3 187 188 248 
3 180 188 232 
3 183 189 237 
3 189 190 237 
3 190 237 239 
3 190 191 239 
3 191 239 241 
3 191 192 241 
3 192 241 243 
3 192 193 243 
3 193 243 245 
3 184 193 245 
3 194 195 249 
3 195 197 250 
3 195 249 250 
3 197 198 251 
3 197 250 251 
3 198 199 252 
3 198 251 252 
3 199 200 253 
3 199 252 253 
3 200 201 254 
3 200 253 254 
3 201 202 255 
3 201 254 255 
3 202 204 255 
3 205 206 256 
3 206 256 257 
3 194 206 249 
3 206 249 258 
3 206 257 258 
3 249 250 258 
3 250 258 259 
3 250 251 259 
3 251 259 260 
3 251 252 260 
3 252 260 261 
3 252 253 261 
3 253 261 262 
3 253 254 262 
3 254 262 263 
3 254 255 263 
3 255 263 264 
3 204 255 264 
3 204 209 264 
3 209 264 265 
3 209 210 265 
3 210 265 266 
3 266 267 268 
3 211 266 267 
3 210 211 266 
3 211 213 267 
3 214 215 269 
3 215 217 270 
3 215 269 270 
3 217 270 271 
3 205 217 271 
3 205 256 271 
3 267 268 272 
3 213 267 272 
3 213 272 273 
3 213 218 273 
3 214 219 269 
3 219 269 274 
3 269 274 275 
3 269 270 275 
3 270 275 276 
3 270 271 276 
3 218 220 277 
3 218 273 277 
3 219 221 274 
3 221 224 274 
3 224 274 275 
3 224 225 275 
3 225 275 276 
3 225 276 278 
3 220 226 279 
3 220 277 279 
3 225 227 280 
3 225 278 280 
3 226 228 281 
3 226 279 281 
3 230 282 283 
3 230 280 282 
3 227 230 280 
3 283 284 285 
3 282 283 285 
3 284 285 286 
3 231 233 287 
3 233 287 288 
3 233 234 288 
3 234 288 289 
3 234 281 289 
3 228 234 281 
3 230 235 283 
3 235 236 283 
3 236 283 284 
3 284 286 290 
3 236 284 290 
3 236 238 290 
3 238 240 290 
3 240 290 291 
3 240 242 291 
3 242 291 292 
3 242 244 292 
3 244 292 293 
3 244 246 293 
3 246 293 294 
3 246 247 294 
3 247 294 295 
3 247 248 295 
3 248 295 296 
3 248 287 296 
3 231 248 287 
3 256 257 297 
3 257 258 298 
3 257 297 298 
3 258 259 299 
3 258 298 299 
3 259 260 300 
3 259 299 300 
3 260 300 301 
3 260 301 302 
3 260 261 302 
3 261 262 302 
3 262 302 303 
3 262 263 303 
3 263 303 304 
3 263 264 304 
3 264 304 305 
3 264 265 305 
3 265 305 306 
3 306 307 308 
3 266 306 307 
3 265 266 306 
3 266 268 307 
3 256 271 297 
3 271 297 309 
3 297 309 310 
3 297 298 310 
3 299 311 312 
3 299 310 311 
3 298 299 310 
3 299 300 312 
3 300 312 313 
3 300 301 313 
3 307 308 314 
3 314 315 316 
3 307 314 316 
3 272 307 316 
3 268 272 307 
3 272 273 316 
3 271 276 309 
3 276 309 317 
3 309 317 318 
3 309 310 318 
3 310 318 319 
3 310 311 319 
3 315 320 321 
3 315 316 321 
3 273 316 321 
3 273 277 321 
3 276 278 317 
3 278 317 322 
3 317 322 323 
3 317 318 323 
3 318 323 324 
3 318 319 324 
3 320 325 326 
3 320 321 326 
3 277 321 326 
3 277 279 326 
3 278 280 322 
3 280 322 327 
3 322 327 328 
3 322 323 328 
3 323 328 329 
3 323 324 329 
3 325 330 331 
3 325 326 331 
3 279 326 331 
3 279 281 331 
3 280 282 327 
3 282 285 327 
3 285 327 328 
3 328 329 332 
3 285 328 332 
3 285 332 333 
3 285 286 333 
3 333 334 335 
3 332 333 335 
3 334 336 337 
3 334 335 337 
3 336 338 339 
3 336 337 339 
3 338 340 341 
3 338 339 341 
3 340 342 343 
3 340 341 343 
3 342 344 345 
3 342 343 345 
3 287 288 344 
3 288 344 345 
3 288 345 346 
3 289 330 331 
3 289 330 346 
3 288 289 346 
3 281 289 331 
3 286 290 333 
3 290 291 333 
3 291 333 334 
3 291 292 334 
3 292 334 336 
3 292 293 336 
3 293 336 338 
3 293 294 338 
3 294 338 340 
3 294 295 340 
3 295 340 342 
3 295 296 342 
3 296 342 344 
3 287 296 344 
3 301 302 347 
3 302 303 348 
3 302 347 348 
3 303 304 349 
3 303 348 349 
3 304 305 350 
3 304 349 350 
3 305 306 351 
3 305 350 351 
3 306 308 351 
3 311 312 352 
3 312 313 353 
3 312 352 353 
3 301 313 347 
3 313 347 353 
3 347 353 354 
3 347 354 355 
3 347 348 355 
3 349 356 357 
3 349 355 356 
3 348 349 355 
3 349 350 357 
3 350 357 358 
3 358 359 360 
3 350 358 360 
3 350 351 360 
3 308 314 361 
3 308 351 361 
3 351 360 361 
3 314 315 361 
3 311 319 352 
3 319 352 362 
3 352 362 363 
3 352 353 363 
3 353 363 364 
3 353 354 364 
3 354 364 365 
3 354 355 365 
3 355 365 366 
3 355 356 366 
3 359 360 367 
3 367 368 369 
3 360 367 369 
3 360 361 369 
3 315 361 369 
3 315 320 369 
3 319 324 362 
3 324 362 370 
3 362 370 371 
3 362 363 371 
3 363 371 372 
3 363 364 372 
3 365 373 374 
3 365 372 373 
3 364 365 372 
3 365 366 374 
3 368 375 376 
3 368 369 376 
3 320 369 376 
3 320 325 376 
3 324 329 370 
3 329 370 377 
3 370 377 378 
3 370 371 378 
3 371 378 379 
3 371 372 379 
3 372 373 380 
3 372 380 381 
3 372 379 381 
3 381 382 383 
3 380 381 383 
3 382 384 385 
3 382 383 385 
3 384 386 387 
3 384 385 387 
3 375 386 387 
3 375 376 386 
3 376 386 388 
3 325 376 388 
3 325 330 388 
3 329 332 377 
3 332 335 377 
3 335 377 378 
3 335 337 378 
3 337 378 379 
3 337 339 379 
3 339 379 381 
3 339 341 381 
3 341 381 382 
3 341 343 382 
3 343 382 384 
3 343 345 384 
3 345 384 386 
3 345 346 386 
3 346 386 388 
3 330 346 388 
3 356 357 389 
3 357 358 390 
3 357 389 390 
3 358 359 390 
3 356 366 389 
3 366 389 391 
3 389 391 392 
3 389 390 392 
3 359 367 393 
3 359 390 393 
3 390 392 393 
3 367 368 393 
3 373 374 394 
3 366 374 391 
3 374 391 394 
3 391 394 395 
3 391 395 396 
3 391 392 396 
3 392 396 397 
3 392 393 397 
3 368 393 397 
3 368 375 397 
3 373 380 394 
3 380 383 394 
3 383 394 395 
3 383 385 395 
3 385 395 396 
3 385 387 396 
3 387 396 397 
3 375 387 397 
